<?xml version="1.0" encoding="UTF-8"?>
<svg viewBox="0 0 289.9 289.9" xml:space="preserve" xmlns="http://www.w3.org/2000/svg" xmlns:xlink="http://www.w3.org/1999/xlink">
  <style>
    .st0{fill:#f59084}.st1{fill:#fdd9cb}.st2{fill:#fff}.st3{fill:#ee2248}.st5{fill:#630b38;stroke:#630b38;stroke-width:1.23;stroke-linejoin:round}.st6{fill:none}.st8{fill:#630b38}.st31,.st33,.st9{stroke-linecap:round}.st9{fill:#630b38;stroke:#630b38;stroke-width:1.23;stroke-linejoin:round}.st31,.st33{fill:none;stroke:#000;stroke-width:5.7364;stroke-miterlimit:10}.st33{stroke-width:3.5852}
  </style>
  <g transform="matrix(-1 0 0 1 288.94 0)">
    <defs>
      <path id="SVGID_22_" d="M216.6 69.8c-5-20-13.1-42-26.2-64.6-36.4 12.3-63.6 28.9-83.7 45.3-.3-5.5-.5-11.1-.8-16.6-66.5 36.5-96.2 108.9-76 167.4 13.5 39.1 49.7 73.6 92.7 79 61.5 7.7 130.2-44.9 144.9-129.3-5.4 2.3-10.8 4.6-16.2 6.8 4.5-25.7 4.8-59.3-8.1-98.1l-26.6 10.1"/>
    </defs>
    <clipPath id="SVGID_23_">
      <use width="100%" height="100%" xlink:href="#SVGID_22_"/>
    </clipPath>
    <radialGradient id="SVGID_24_" cx="103.99" cy="281.75" r="390.35" fx="104.15" fy="278.7" gradientTransform="matrix(.9884 .1522 -.1068 .6937 31.307 70.464)" gradientUnits="userSpaceOnUse">
      <stop stop-color="#D6FE85" offset=".069658"/>
      <stop stop-color="#2FFE0F" offset=".5402"/>
      <stop stop-color="#01E501" offset="1"/>
    </radialGradient>
    <path clip-path="url(#SVGID_23_)" fill="url(#SVGID_24_)" d="M-183.4-5.6h574.7v574.7h-574.7z"/>
    <path class="st2" d="M44.3 184.9c-.2-15 8.3-33.6 17-33.7 10.7-.1 20.3 28 18.8 48.9-.4 6.3-1.7 9.7-4.3 11.6-6.6 4.7-21.1-1.2-27.5-11.2-3.8-6-3.9-12-4-15.6z"/>
    <defs>
      <path id="SVGID_25_" d="M44.7 186.3c-.3-15.1 7.6-34.8 16.7-35.1 11-.4 23.6 28.4 18.8 48.9-1.1 4.7-2.8 7.7-5.4 9.4-7.2 4.7-20.5-.2-26.4-9.1-.7-.9-3.5-5.3-3.7-14.1z"/>
    </defs>
    <clipPath id="SVGID_26_">
      <use width="100%" height="100%" xlink:href="#SVGID_25_"/>
    </clipPath>
    <path d="M69 164.6c-6.9-.1-16 14.4-12.7 26.4 1.9 7 8.5 14.6 15.4 13.8 5.6-.7 8.8-6.4 9.1-6.9 6.2-11.6-3.5-33.1-11.8-33.3z" clip-path="url(#SVGID_26_)" fill="#01c591" stroke="#000" stroke-width="5.7364" stroke-linecap="round" stroke-miterlimit="10"/>
    <path d="M105.6 50.5c-.3-5.7-.5-9.9-.8-15.6-66.5 36.5-96.2 108.9-76 167.4 13.5 39.1 49.7 73.6 92.7 79C183 289 251.7 236.4 266.4 152c-5.4 2.3-10.2 3.9-15.6 6.2" fill="none" stroke="#000" stroke-width="5.7364" stroke-linecap="round" stroke-linejoin="round" stroke-miterlimit="10"/>
    <path d="M54.8 113.4c1.2-3.6 2.7-6.9 4.3-10.3.8-1.7 1.7-3.3 2.6-4.9s1.8-3.2 2.8-4.8C68.3 87 72.7 81 77.4 75.2S87.2 64 92.6 58.8c5.4-5.1 11.1-10 16.9-14.6 3-2.3 5.9-4.5 9-6.6 3-2.2 6.2-4.2 9.3-6.2 6.3-3.9 12.8-7.7 19.4-11 13.3-6.7 27.1-12.4 41.2-16.8l.2-.1c1.3-.4 2.7.2 3.3 1.4l2.6 4.5c.9 1.5 1.8 3 2.6 4.6 1.6 3.1 3.3 6.2 4.8 9.4L204 28l2.1 4.8c1.4 3.2 2.7 6.5 3.9 9.7 2.5 6.6 4.7 13.2 6.5 20 1.9 6.7 3.4 13.6 4.7 20.5s2.2 13.8 2.8 20.8 1 14 .9 21-.6 14-1.4 20.9c-1 6.9-2.2 13.8-4.4 20.5-.1.3-.4.5-.7.4s-.4-.4-.4-.6c1-6.8 1.5-13.7 1.8-20.5.3-6.9.3-13.7.1-20.5-.5-13.7-1.9-27.3-4.6-40.7-.6-3.4-1.4-6.7-2.2-10-.9-3.3-1.7-6.6-2.6-9.9s-2-6.5-3-9.8c-.5-1.6-1.1-3.2-1.7-4.8s-1.1-3.2-1.7-4.8c-1.2-3.2-2.4-6.4-3.8-9.5l-2-4.7-2.1-4.7c-1.4-3.1-3-6.1-4.5-9.2-1.6-3-3.2-6-4.8-9.1l3.5 1.3c-13.6 5.1-27 10.8-39.8 17.6-12.9 6.6-25.2 14.4-36.8 23-5.8 4.4-11.4 8.9-16.7 13.8-5.4 4.8-10.5 10-15.4 15.3-2.4 2.7-4.8 5.4-7.2 8.2-2.3 2.8-4.6 5.6-6.7 8.5-2.2 2.9-4.3 5.9-6.3 8.9s-3.9 6.1-5.6 9.4c-.1.2-.4.3-.6.2-.5-.2-.6-.4-.5-.6z"/>
    <path d="m215.2 68.4 26.1-10.1c1.3-.5 2.7.1 3.2 1.4 0 .1 0 .1.1.2 4.3 12.6 7.5 25.6 9.4 38.8s2.4 26.6 1.4 40c-1 13.3-3.3 26.5-7.2 39.3-2 6.4-4.3 12.6-7.1 18.7-1.4 3-2.9 6-4.6 8.9s-3.4 5.7-5.4 8.4c-.2.3-.6.3-.9.1-.2-.2-.3-.5-.2-.8 3.1-5.7 5.6-11.8 7.9-17.9s4.2-12.3 5.9-18.6 3-12.7 4-19.1 1.8-12.9 2.1-19.4c.4-6.5.5-13 .1-19.5-.1-3.2-.4-6.5-.6-9.7l-.5-4.8c-.2-1.6-.3-3.2-.6-4.8-1.8-12.9-4.7-25.6-8.6-38l3.3 1.6-26 10c-1.3.5-2.7-.1-3.2-1.4-.6-1.3.1-2.8 1.4-3.3z"/>
    <path d="M173 159.2c-21.2-1.7-46.3 38.5-35.1 57.6 7.6 13.1 30.3 12.7 31.9 12.7 2.9-.1 21.7-.6 29.7-13 12.1-19-7.1-55.8-26.5-57.3z" fill="#fff" stroke="#000" stroke-width="6.4534" stroke-linecap="round" stroke-miterlimit="10"/>
    <path class="st31" d="M44.3 184.9c-.2-15 8.3-33.6 17-33.7 10.7-.1 20.3 28 18.8 48.9-.4 6.3-1.7 9.7-4.3 11.6-6.6 4.7-21.1-1.2-27.5-11.2-3.8-6-3.9-12-4-15.6z"/>
    <path d="M84.5 235.5c2.6 3.6 5.6 7 9.2 9.1s7.8 2.8 12 2.3c4.2-.6 8.5-2.1 12.4-4.3 2-1.1 4-2.3 5.9-3.6s3.8-2.7 5.7-4.1l.1-.1c1.4-1.1 3.5-.7 4.5.7s.8 3.4-.6 4.5l-2.9 2.3c-1 .8-2 1.4-3.1 2.2-2.1 1.4-4.2 2.7-6.5 3.9-4.5 2.3-9.5 4.2-14.8 4.7-2.7.2-5.4.1-8.1-.5s-5.3-1.7-7.5-3.3c-2.3-1.5-4.2-3.4-5.7-5.6-.8-1.1-1.4-2.2-2-3.4-.5-1.2-1-2.4-1.3-3.8-.2-.8.3-1.6 1.1-1.7.6-.1 1.2.1 1.5.6z"/>
    <path d="M167.5 176.2c10.4.7 21.8 14.6 17.8 27.9-2.9 9.6-13.1 16.2-23.2 14.9-6.2-.8-12.6-4.8-15.2-10.9-5.5-12.9 7.6-32.7 20.6-31.9z" fill="#01c591" stroke="#000" stroke-width="5.7364" stroke-linecap="round" stroke-miterlimit="10"/>
    <path class="st33" d="M161.3 187.7s4.7.7 10 .1"/>
    <path d="M156.5 193.4s8 2.2 17.6.8" fill="none" stroke="#000" stroke-width="4.3023" stroke-linecap="round" stroke-miterlimit="10"/>
    <path class="st31" d="M153.6 200.6s9.5 3.4 20.7 1.8"/>
    <path d="M148.5 194.4s-7.3 12.3 14.2 13.8c24.3 1.7 20-7.8 20.5-5.3 0 0 2.2 20.2-20.7 17.2-22.8-3.1-14-25.7-14-25.7z"/>
    <path d="M68.2 175.5s2.6 1.4 5.6 1.9" fill="none" stroke="#000" stroke-width="2.8682" stroke-linecap="round" stroke-miterlimit="10"/>
    <path class="st33" d="M64 180.5s5.3 3.9 13.8 3.3"/>
    <path d="M62.3 187.1s5.8 4.8 14.7 4.9" fill="none" stroke="#000" stroke-width="5.0193" stroke-linecap="round" stroke-miterlimit="10"/>
    <path d="M55.9 179.4s-1.4 12.5 11.7 16.3c11.6 3.3 14.4-.1 14.4-.1s-.8 13.3-12.1 12.8c-8.8-.4-17.9-14.2-14-29z"/>
  </g>
</svg>
