<?xml version="1.0" encoding="UTF-8"?>
<svg width="339px" height="121px" viewBox="0 0 339 121" version="1.1" xmlns="http://www.w3.org/2000/svg" xmlns:xlink="http://www.w3.org/1999/xlink">
    <title>pila-logo--myrtle-green</title>
    <defs>
        <radialGradient cx="42.6775897%" cy="6.03109638%" fx="42.6775897%" fy="6.03109638%" r="60.920589%" gradientTransform="translate(0.426776,0.060311),scale(1.000000,0.882808),rotate(90.000000),translate(-0.426776,-0.060311)" id="radialGradient-1">
            <stop stop-color="#6BEAC9" offset="0%"></stop>
            <stop stop-color="#6BEAC9" offset="100%"></stop>
        </radialGradient>
    </defs>
    <g id="Page-1" stroke="none" stroke-width="1" fill="none" fill-rule="evenodd">
        <g id="pila-logo--myrtle-green">
            <g id="A" transform="translate(260.000000, 0.000000)" fill="url(#radialGradient-1)">
                <path d="M25.3679875,5.91465913 L75.7136188,68.0863361 C80.4057336,73.8806152 79.5122528,82.3815171 73.7179736,87.0736318 C67.9236945,91.7657465 59.4227926,90.8722658 54.7306779,85.0779866 L27,50.833042 L27,76.5 C27,83.9558441 20.9558441,90 13.5,90 C6.04415588,90 0,83.9558441 0,76.5 L0,14.5 C0,7.11430495 5.9309568,1.11385908 13.2899315,1.00160126 C17.7355541,0.48071601 22.3431966,2.17935339 25.3679875,5.91465913 Z" id="Path"></path>
            </g>
            <g id="L" transform="translate(159.000000, 1.000000)" fill="#6BEAC9">
                <path d="M13.5,0 C20.9558441,0 27,6.04415588 27,13.5 L27,62 L65.5,62 C72.9558441,62 79,68.0441559 79,75.5 C79,82.9558441 72.9558441,89 65.5,89 L13.5,89 C6.04415588,89 0,82.9558441 0,75.5 L0,13.5 C0,6.04415588 6.04415588,0 13.5,0 Z" id="Path"></path>
            </g>
            <g id="Path" transform="translate(111.000000, 1.000000)" fill="#6BEAC9">
                <path d="M13.5,0 C20.9558441,0 27,6.04415588 27,13.5 L27,75.5 C27,82.8522907 21.1225714,88.8318345 13.8098308,88.9965146 L13.5,89 C6.04415588,89 0,82.9558441 0,75.5 L0,13.5 C0,6.04415588 6.04415588,0 13.5,0 Z"></path>
            </g>
            <g id="P" transform="translate(0.000000, 1.000000)" fill="#6BEAC9">
                <g id="Group" transform="translate(0.000000, 31.000000)">
                    <g id="pole" transform="translate(13.500000, 44.500000) scale(1, -1) translate(-13.500000, -44.500000) ">
                        <path d="M13.5,0 C20.9558441,0 27,6.04415588 27,13.5 L27,75.5 C27,82.8522907 21.1225714,88.8318345 13.8098308,88.9965146 L13.5,89 C6.04415588,89 0,82.9558441 0,75.5 L0,13.5 C0,6.04415588 6.04415588,0 13.5,0 Z" id="Path"></path>
                    </g>
                </g>
                <circle id="Oval" cx="44.5" cy="44.5" r="44.5"></circle>
            </g>
        </g>
    </g>
</svg>